ffmpeg started on 2025-07-19 at 14:19:49
Report written to "D:\Convert\FFMetrics\reports\ssim_report-6.txt"
Log level: 32
Command line:
ffmpeg -hide_banner -nostdin -i "G:\\\xc0\xed\xe8\xec\xe5\\\xce\xed\xe3\xee\xe8\xed\xe3\xe8\\!_07_\xcb\xe5\xf2\xee_2017\\\xd1\xe5\xec\xfc - \xe2\xe5\xf0\xed\xee, \xf2\xf0\xe8 - \xed\xe5\xe2\xe5\xf0\xed\xee\\[AniDub]_Nana_Maru_San_Batsu_[09]_[720p_x264_Aac]_[MVO]_HEVC.mkv" -i "G:\\\xc0\xed\xe8\xec\xe5\\\xce\xed\xe3\xee\xe8\xed\xe3\xe8\\!_07_\xcb\xe5\xf2\xee_2017\\\xd1\xe5\xec\xfc - \xe2\xe5\xf0\xed\xee, \xf2\xf0\xe8 - \xed\xe5\xe2\xe5\xf0\xed\xee\\[AniDub]_Nana_Maru_San_Batsu_[09]_[720p_x264_Aac]_[MVO].mp4" -lavfi "[0:v]settb=AVTB,setpts=PTS-STARTPTS,format=pix_fmts=yuv420p10,fps=24000/1001,scale=1280:720:flags=bicubic[main];[1:v]settb=AVTB,setpts=PTS-STARTPTS,format=pix_fmts=yuv420p,fps=24000/1001,scale=1280:720:flags=bicubic[ref];[main][ref]ssim=eof_action=endall:stats_file='D\\:/Convert/FFMetrics/logs/ssim_logfile-6.txt'" -f null -
Input #0, matroska,webm, from 'G:\Аниме\Онгоинги\!_07_Лето_2017\Семь - верно, три - неверно\[AniDub]_Nana_Maru_San_Batsu_[09]_[720p_x264_Aac]_[MVO]_HEVC.mkv':
  Metadata:
    COMPATIBLE_BRANDS: isom
    MAJOR_BRAND     : isom
    MINOR_VERSION   : 1
    ENCODER         : Lavf61.7.100
  Duration: 00:23:01.25, start: -0.021000, bitrate: 572 kb/s
  Stream #0:0: Video: hevc (Main 10), yuv420p10le(tv, bt709, progressive), 1280x720 [SAR 1:1 DAR 16:9], 23.98 fps, 23.98 tbr, 1k tbn (default)
      Metadata:
        HANDLER_NAME    : GPAC ISO Video Handler
        VENDOR_ID       : [0][0][0][0]
        ENCODER         : Lavc61.19.100 libx265
        BPS             : 375598
        DURATION        : 00:23:00.045708333
        NUMBER_OF_FRAMES: 33088
        NUMBER_OF_BYTES : 64792839
        _STATISTICS_WRITING_APP: mkvpropedit v66.0.0 ('Josie') 64-bit
        _STATISTICS_WRITING_DATE_UTC: 2025-07-19 10:16:10
        _STATISTICS_TAGS: BPS DURATION NUMBER_OF_FRAMES NUMBER_OF_BYTES
  Stream #0:1(eng): Audio: aac (LC), 48000 Hz, stereo, fltp (default)
      Metadata:
        HANDLER_NAME    : GPAC ISO Audio Handler
        VENDOR_ID       : [0][0][0][0]
        ENCODER         : Lavc61.19.100 aac
        BPS             : 193607
        DURATION        : 00:23:01.226000000
        NUMBER_OF_FRAMES: 64746
        NUMBER_OF_BYTES : 33426915
        _STATISTICS_WRITING_APP: mkvpropedit v66.0.0 ('Josie') 64-bit
        _STATISTICS_WRITING_DATE_UTC: 2025-07-19 10:16:10
        _STATISTICS_TAGS: BPS DURATION NUMBER_OF_FRAMES NUMBER_OF_BYTES
Input #1, mov,mp4,m4a,3gp,3g2,mj2, from 'G:\Аниме\Онгоинги\!_07_Лето_2017\Семь - верно, три - неверно\[AniDub]_Nana_Maru_San_Batsu_[09]_[720p_x264_Aac]_[MVO].mp4':
  Metadata:
    major_brand     : isom
    minor_version   : 1
    compatible_brands: isom
    creation_time   : 2018-03-24T18:35:02.000000Z
    encoder         : Yamb 2.1.0.0 [http://yamb.unite-video.com]
  Duration: 00:23:01.23, start: 0.000000, bitrate: 1965 kb/s
  Stream #1:0[0x1](und): Video: h264 (High) (avc1 / 0x31637661), yuv420p(progressive), 1280x720 [SAR 1:1 DAR 16:9], 1770 kb/s, 23.98 fps, 23.98 tbr, 24k tbn (default)
      Metadata:
        creation_time   : 2018-03-24T18:00:19.000000Z
        handler_name    : GPAC ISO Video Handler
        vendor_id       : [0][0][0][0]
  Stream #1:1[0x2](eng): Audio: aac (LC) (mp4a / 0x6134706D), 48000 Hz, stereo, fltp, 192 kb/s (default)
      Metadata:
        creation_time   : 2018-03-24T18:35:02.000000Z
        handler_name    : GPAC ISO Audio Handler
        vendor_id       : [0][0][0][0]
Stream mapping:
  Stream #0:0 (hevc) -> settb:default
  Stream #1:0 (h264) -> settb:default
  ssim:default -> Stream #0:0 (wrapped_avframe)
  Stream #0:1 -> #0:1 (aac (native) -> pcm_s16le (native))
[swscaler @ 000001b135a40a00] No accelerated colorspace conversion found from yuv420p to bgr48le.
[swscaler @ 000001b135b0b0c0] No accelerated colorspace conversion found from yuv420p to bgr48le.
[swscaler @ 000001b135d2fe80] No accelerated colorspace conversion found from yuv420p to bgr48le.
[swscaler @ 000001b135dea480] No accelerated colorspace conversion found from yuv420p to bgr48le.
[swscaler @ 000001b135eeeec0] No accelerated colorspace conversion found from yuv420p to bgr48le.
[swscaler @ 000001b135f72040] No accelerated colorspace conversion found from yuv420p to bgr48le.
[swscaler @ 000001b135fd7040] No accelerated colorspace conversion found from yuv420p to bgr48le.
[swscaler @ 000001b13604b040] No accelerated colorspace conversion found from yuv420p to bgr48le.
[swscaler @ 000001b1360d0040] No accelerated colorspace conversion found from yuv420p to bgr48le.
[swscaler @ 000001b1360f4880] No accelerated colorspace conversion found from yuv420p to bgr48le.
[swscaler @ 000001b13615e7c0] No accelerated colorspace conversion found from yuv420p to bgr48le.
[swscaler @ 000001b1361be040] No accelerated colorspace conversion found from yuv420p to bgr48le.
[swscaler @ 000001b136218000] No accelerated colorspace conversion found from yuv420p to bgr48le.
[swscaler @ 000001b13a2f5040] No accelerated colorspace conversion found from yuv420p to bgr48le.
[swscaler @ 000001b13a353040] No accelerated colorspace conversion found from yuv420p to bgr48le.
[swscaler @ 000001b13a3d1040] No accelerated colorspace conversion found from yuv420p to bgr48le.
Output #0, null, to 'pipe:':
  Metadata:
    COMPATIBLE_BRANDS: isom
    MAJOR_BRAND     : isom
    MINOR_VERSION   : 1
    encoder         : Lavf61.7.100
  Stream #0:0: Video: wrapped_avframe, yuv420p10le(tv, bt709, progressive), 1280x720 [SAR 1:1 DAR 16:9], q=2-31, 200 kb/s, 23.98 fps, 23.98 tbn
      Metadata:
        encoder         : Lavc61.19.100 wrapped_avframe
  Stream #0:1(eng): Audio: pcm_s16le, 48000 Hz, stereo, s16, 1536 kb/s (default)
      Metadata:
        HANDLER_NAME    : GPAC ISO Audio Handler
        VENDOR_ID       : [0][0][0][0]
        _STATISTICS_TAGS: BPS DURATION NUMBER_OF_FRAMES NUMBER_OF_BYTES
        BPS             : 193607
        DURATION        : 00:23:01.226000000
        NUMBER_OF_FRAMES: 64746
        NUMBER_OF_BYTES : 33426915
        _STATISTICS_WRITING_APP: mkvpropedit v66.0.0 ('Josie') 64-bit
        _STATISTICS_WRITING_DATE_UTC: 2025-07-19 10:16:10
        encoder         : Lavc61.19.100 pcm_s16le
frame=   74 fps=0.0 q=-0.0 size=N/A time=00:00:03.08 bitrate=N/A speed=6.01x    frame=  174 fps=170 q=-0.0 size=N/A time=00:00:07.25 bitrate=N/A speed= 7.1x    frame=  264 fps=171 q=-0.0 size=N/A time=00:00:11.01 bitrate=N/A speed=7.11x    frame=  362 fps=175 q=-0.0 size=N/A time=00:00:15.09 bitrate=N/A speed=7.31x    frame=  459 fps=178 q=-0.0 size=N/A time=00:00:19.14 bitrate=N/A speed=7.43x    frame=  556 fps=179 q=-0.0 size=N/A time=00:00:23.18 bitrate=N/A speed=7.48x    frame=  649 fps=180 q=-0.0 size=N/A time=00:00:27.06 bitrate=N/A speed=7.52x    frame=  746 fps=181 q=-0.0 size=N/A time=00:00:31.11 bitrate=N/A speed=7.54x    frame=  840 fps=181 q=-0.0 size=N/A time=00:00:35.03 bitrate=N/A speed=7.56x    frame=  937 fps=182 q=-0.0 size=N/A time=00:00:39.08 bitrate=N/A speed=7.58x    frame= 1032 fps=182 q=-0.0 size=N/A time=00:00:43.04 bitrate=N/A speed=7.59x    frame= 1117 fps=181 q=-0.0 size=N/A time=00:00:46.58 bitrate=N/A speed=7.54x    frame= 1223 fps=182 q=-0.0 size=N/A time=00:00:51.00 bitrate=N/A speed=7.61x    frame= 1312 fps=182 q=-0.0 size=N/A time=00:00:54.72 bitrate=N/A speed=7.59x    frame= 1402 fps=181 q=-0.0 size=N/A time=00:00:58.47 bitrate=N/A speed=7.56x    frame= 1494 fps=181 q=-0.0 size=N/A time=00:01:02.31 bitrate=N/A speed=7.56x    frame= 1594 fps=182 q=-0.0 size=N/A time=00:01:06.48 bitrate=N/A speed=7.58x    frame= 1688 fps=182 q=-0.0 size=N/A time=00:01:10.40 bitrate=N/A speed=7.59x    frame= 1785 fps=182 q=-0.0 size=N/A time=00:01:14.44 bitrate=N/A speed= 7.6x    frame= 1875 fps=182 q=-0.0 size=N/A time=00:01:18.20 bitrate=N/A speed=7.58x    frame= 1980 fps=183 q=-0.0 size=N/A time=00:01:22.58 bitrate=N/A speed=7.63x    frame= 2078 fps=183 q=-0.0 size=N/A time=00:01:26.66 bitrate=N/A speed=7.64x    frame= 2173 fps=183 q=-0.0 size=N/A time=00:01:30.63 bitrate=N/A speed=7.65x    frame= 2271 fps=183 q=-0.0 size=N/A time=00:01:34.71 bitrate=N/A speed=7.65x    frame= 2365 fps=184 q=-0.0 size=N/A time=00:01:38.64 bitrate=N/A speed=7.66x    frame= 2462 fps=184 q=-0.0 size=N/A time=00:01:42.68 bitrate=N/A speed=7.66x    frame= 2552 fps=183 q=-0.0 size=N/A time=00:01:46.43 bitrate=N/A speed=7.65x    frame= 2647 fps=183 q=-0.0 size=N/A time=00:01:50.40 bitrate=N/A speed=7.65x    frame= 2736 fps=183 q=-0.0 size=N/A time=00:01:54.11 bitrate=N/A speed=7.64x    frame= 2831 fps=183 q=-0.0 size=N/A time=00:01:58.07 bitrate=N/A speed=7.63x    frame= 2922 fps=183 q=-0.0 size=N/A time=00:02:01.87 bitrate=N/A speed=7.63x    frame= 3017 fps=183 q=-0.0 size=N/A time=00:02:05.83 bitrate=N/A speed=7.63x    frame= 3108 fps=183 q=-0.0 size=N/A time=00:02:09.62 bitrate=N/A speed=7.62x    frame= 3205 fps=183 q=-0.0 size=N/A time=00:02:13.67 bitrate=N/A speed=7.62x    frame= 3291 fps=182 q=-0.0 size=N/A time=00:02:17.26 bitrate=N/A speed=7.61x    frame= 3381 fps=182 q=-0.0 size=N/A time=00:02:21.01 bitrate=N/A speed= 7.6x    frame= 3482 fps=183 q=-0.0 size=N/A time=00:02:25.22 bitrate=N/A speed=7.61x    frame= 3575 fps=182 q=-0.0 size=N/A time=00:02:29.10 bitrate=N/A speed=7.61x    frame= 3665 fps=182 q=-0.0 size=N/A time=00:02:32.86 bitrate=N/A speed= 7.6x    frame= 3760 fps=182 q=-0.0 size=N/A time=00:02:36.82 bitrate=N/A speed=7.61x    frame= 3853 fps=182 q=-0.0 size=N/A time=00:02:40.70 bitrate=N/A speed= 7.6x    frame= 3946 fps=182 q=-0.0 size=N/A time=00:02:44.58 bitrate=N/A speed= 7.6x    frame= 4032 fps=182 q=-0.0 size=N/A time=00:02:48.16 bitrate=N/A speed=7.58x    frame= 4130 fps=182 q=-0.0 size=N/A time=00:02:52.25 bitrate=N/A speed=7.59x    frame= 4219 fps=182 q=-0.0 size=N/A time=00:02:55.96 bitrate=N/A speed=7.58x    frame= 4315 fps=182 q=-0.0 size=N/A time=00:02:59.97 bitrate=N/A speed=7.59x    frame= 4402 fps=182 q=-0.0 size=N/A time=00:03:03.60 bitrate=N/A speed=7.58x    frame= 4495 fps=182 q=-0.0 size=N/A time=00:03:07.47 bitrate=N/A speed=7.58x    frame= 4596 fps=182 q=-0.0 size=N/A time=00:03:11.69 bitrate=N/A speed=7.59x    frame= 4689 fps=182 q=-0.0 size=N/A time=00:03:15.57 bitrate=N/A speed=7.59x    frame= 4789 fps=182 q=-0.0 size=N/A time=00:03:19.74 bitrate=N/A speed= 7.6x    frame= 4889 fps=182 q=-0.0 size=N/A time=00:03:23.91 bitrate=N/A speed= 7.6x    frame= 4986 fps=182 q=-0.0 size=N/A time=00:03:27.95 bitrate=N/A speed=7.61x    frame= 5084 fps=183 q=-0.0 size=N/A time=00:03:32.04 bitrate=N/A speed=7.62x    frame= 5182 fps=183 q=-0.0 size=N/A time=00:03:36.13 bitrate=N/A speed=7.62x    frame= 5275 fps=183 q=-0.0 size=N/A time=00:03:40.01 bitrate=N/A speed=7.62x    frame= 5367 fps=183 q=-0.0 size=N/A time=00:03:43.84 bitrate=N/A speed=7.62x    frame= 5465 fps=183 q=-0.0 size=N/A time=00:03:47.93 bitrate=N/A speed=7.62x    frame= 5561 fps=183 q=-0.0 size=N/A time=00:03:51.94 bitrate=N/A speed=7.62x    frame= 5658 fps=183 q=-0.0 size=N/A time=00:03:55.98 bitrate=N/A speed=7.62x    frame= 5756 fps=183 q=-0.0 size=N/A time=00:04:00.07 bitrate=N/A speed=7.63x    frame= 5852 fps=183 q=-0.0 size=N/A time=00:04:04.07 bitrate=N/A speed=7.63x    frame= 5945 fps=183 q=-0.0 size=N/A time=00:04:07.95 bitrate=N/A speed=7.63x    frame= 6035 fps=183 q=-0.0 size=N/A time=00:04:11.70 bitrate=N/A speed=7.62x    frame= 6138 fps=183 q=-0.0 size=N/A time=00:04:16.00 bitrate=N/A speed=7.63x    frame= 6242 fps=183 q=-0.0 size=N/A time=00:04:20.34 bitrate=N/A speed=7.64x    frame= 6341 fps=183 q=-0.0 size=N/A time=00:04:24.47 bitrate=N/A speed=7.65x    frame= 6434 fps=183 q=-0.0 size=N/A time=00:04:28.35 bitrate=N/A speed=7.65x    frame= 6535 fps=183 q=-0.0 size=N/A time=00:04:32.56 bitrate=N/A speed=7.65x    frame= 6631 fps=184 q=-0.0 size=N/A time=00:04:36.56 bitrate=N/A speed=7.66x    frame= 6723 fps=183 q=-0.0 size=N/A time=00:04:40.40 bitrate=N/A speed=7.65x    frame= 6829 fps=184 q=-0.0 size=N/A time=00:04:44.82 bitrate=N/A speed=7.67x    frame= 6930 fps=184 q=-0.0 size=N/A time=00:04:49.03 bitrate=N/A speed=7.67x    frame= 7032 fps=184 q=-0.0 size=N/A time=00:04:53.29 bitrate=N/A speed=7.68x    frame= 7123 fps=184 q=-0.0 size=N/A time=00:04:57.08 bitrate=N/A speed=7.68x    frame= 7229 fps=184 q=-0.0 size=N/A time=00:05:01.50 bitrate=N/A speed=7.69x    frame= 7327 fps=184 q=-0.0 size=N/A time=00:05:05.59 bitrate=N/A speed=7.69x    frame= 7420 fps=184 q=-0.0 size=N/A time=00:05:09.47 bitrate=N/A speed=7.69x    frame= 7514 fps=184 q=-0.0 size=N/A time=00:05:13.39 bitrate=N/A speed=7.69x    frame= 7623 fps=185 q=-0.0 size=N/A time=00:05:17.94 bitrate=N/A speed= 7.7x    frame= 7710 fps=184 q=-0.0 size=N/A time=00:05:21.57 bitrate=N/A speed=7.69x    frame= 7804 fps=184 q=-0.0 size=N/A time=00:05:25.49 bitrate=N/A speed=7.69x    frame= 7908 fps=185 q=-0.0 size=N/A time=00:05:29.82 bitrate=N/A speed= 7.7x    frame= 8000 fps=185 q=-0.0 size=N/A time=00:05:33.66 bitrate=N/A speed= 7.7x    frame= 8086 fps=184 q=-0.0 size=N/A time=00:05:37.25 bitrate=N/A speed=7.69x    frame= 8187 fps=184 q=-0.0 size=N/A time=00:05:41.46 bitrate=N/A speed= 7.7x    frame= 8279 fps=184 q=-0.0 size=N/A time=00:05:45.30 bitrate=N/A speed=7.69x    frame= 8364 fps=184 q=-0.0 size=N/A time=00:05:48.84 bitrate=N/A speed=7.68x    frame= 8463 fps=184 q=-0.0 size=N/A time=00:05:52.97 bitrate=N/A speed=7.69x    frame= 8554 fps=184 q=-0.0 size=N/A time=00:05:56.77 bitrate=N/A speed=7.68x    frame= 8646 fps=184 q=-0.0 size=N/A time=00:06:00.61 bitrate=N/A speed=7.68x    frame= 8743 fps=184 q=-0.0 size=N/A time=00:06:04.65 bitrate=N/A speed=7.68x    frame= 8838 fps=184 q=-0.0 size=N/A time=00:06:08.61 bitrate=N/A speed=7.68x    frame= 8928 fps=184 q=-0.0 size=N/A time=00:06:12.37 bitrate=N/A speed=7.68x    frame= 9023 fps=184 q=-0.0 size=N/A time=00:06:16.33 bitrate=N/A speed=7.68x    frame= 9113 fps=184 q=-0.0 size=N/A time=00:06:20.08 bitrate=N/A speed=7.67x    frame= 9198 fps=184 q=-0.0 size=N/A time=00:06:23.63 bitrate=N/A speed=7.67x    frame= 9285 fps=184 q=-0.0 size=N/A time=00:06:27.26 bitrate=N/A speed=7.66x    frame= 9393 fps=184 q=-0.0 size=N/A time=00:06:31.76 bitrate=N/A speed=7.67x    frame= 9489 fps=184 q=-0.0 size=N/A time=00:06:35.77 bitrate=N/A speed=7.67x    frame= 9584 fps=184 q=-0.0 size=N/A time=00:06:39.73 bitrate=N/A speed=7.67x    frame= 9668 fps=184 q=-0.0 size=N/A time=00:06:43.23 bitrate=N/A speed=7.66x    frame= 9775 fps=184 q=-0.0 size=N/A time=00:06:47.69 bitrate=N/A speed=7.67x    frame= 9863 fps=184 q=-0.0 size=N/A time=00:06:51.36 bitrate=N/A speed=7.67x    frame= 9951 fps=184 q=-0.0 size=N/A time=00:06:55.03 bitrate=N/A speed=7.66x    frame=10057 fps=184 q=-0.0 size=N/A time=00:06:59.46 bitrate=N/A speed=7.67x    frame=10145 fps=184 q=-0.0 size=N/A time=00:07:03.13 bitrate=N/A speed=7.67x    frame=10246 fps=184 q=-0.0 size=N/A time=00:07:07.34 bitrate=N/A speed=7.67x    frame=10343 fps=184 q=-0.0 size=N/A time=00:07:11.38 bitrate=N/A speed=7.67x    frame=10439 fps=184 q=-0.0 size=N/A time=00:07:15.39 bitrate=N/A speed=7.67x    frame=10524 fps=184 q=-0.0 size=N/A time=00:07:18.93 bitrate=N/A speed=7.66x    frame=10627 fps=184 q=-0.0 size=N/A time=00:07:23.23 bitrate=N/A speed=7.67x    frame=10727 fps=184 q=-0.0 size=N/A time=00:07:27.40 bitrate=N/A speed=7.67x    frame=10824 fps=184 q=-0.0 size=N/A time=00:07:31.45 bitrate=N/A speed=7.67x    frame=10914 fps=184 q=-0.0 size=N/A time=00:07:35.20 bitrate=N/A speed=7.67x    frame=11006 fps=184 q=-0.0 size=N/A time=00:07:39.04 bitrate=N/A speed=7.67x    frame=11103 fps=184 q=-0.0 size=N/A time=00:07:43.08 bitrate=N/A speed=7.67x    frame=11192 fps=184 q=-0.0 size=N/A time=00:07:46.79 bitrate=N/A speed=7.67x    frame=11283 fps=184 q=-0.0 size=N/A time=00:07:50.59 bitrate=N/A speed=7.66x    frame=11378 fps=184 q=-0.0 size=N/A time=00:07:54.55 bitrate=N/A speed=7.66x    frame=11477 fps=184 q=-0.0 size=N/A time=00:07:58.68 bitrate=N/A speed=7.67x    frame=11575 fps=184 q=-0.0 size=N/A time=00:08:02.77 bitrate=N/A speed=7.67x    frame=11660 fps=184 q=-0.0 size=N/A time=00:08:06.31 bitrate=N/A speed=7.66x    frame=11766 fps=184 q=-0.0 size=N/A time=00:08:10.74 bitrate=N/A speed=7.67x    frame=11847 fps=184 q=-0.0 size=N/A time=00:08:14.11 bitrate=N/A speed=7.66x    frame=11949 fps=184 q=-0.0 size=N/A time=00:08:18.37 bitrate=N/A speed=7.67x    frame=12047 fps=184 q=-0.0 size=N/A time=00:08:22.46 bitrate=N/A speed=7.67x    frame=12145 fps=184 q=-0.0 size=N/A time=00:08:26.54 bitrate=N/A speed=7.67x    frame=12236 fps=184 q=-0.0 size=N/A time=00:08:30.34 bitrate=N/A speed=7.67x    frame=12324 fps=184 q=-0.0 size=N/A time=00:08:34.01 bitrate=N/A speed=7.66x    frame=12421 fps=184 q=-0.0 size=N/A time=00:08:38.05 bitrate=N/A speed=7.66x    frame=12514 fps=184 q=-0.0 size=N/A time=00:08:41.93 bitrate=N/A speed=7.66x    frame=12604 fps=184 q=-0.0 size=N/A time=00:08:45.69 bitrate=N/A speed=7.66x    frame=12698 fps=184 q=-0.0 size=N/A time=00:08:49.61 bitrate=N/A speed=7.66x    frame=12790 fps=184 q=-0.0 size=N/A time=00:08:53.44 bitrate=N/A speed=7.66x    frame=12880 fps=184 q=-0.0 size=N/A time=00:08:57.20 bitrate=N/A speed=7.66x    frame=12978 fps=184 q=-0.0 size=N/A time=00:09:01.29 bitrate=N/A speed=7.66x    frame=13071 fps=184 q=-0.0 size=N/A time=00:09:05.16 bitrate=N/A speed=7.66x    frame=13166 fps=184 q=-0.0 size=N/A time=00:09:09.13 bitrate=N/A speed=7.66x    frame=13262 fps=184 q=-0.0 size=N/A time=00:09:13.13 bitrate=N/A speed=7.66x    frame=13355 fps=184 q=-0.0 size=N/A time=00:09:17.01 bitrate=N/A speed=7.66x    frame=13445 fps=184 q=-0.0 size=N/A time=00:09:20.76 bitrate=N/A speed=7.65x    frame=13544 fps=184 q=-0.0 size=N/A time=00:09:24.89 bitrate=N/A speed=7.66x    frame=13628 fps=183 q=-0.0 size=N/A time=00:09:28.40 bitrate=N/A speed=7.65x    frame=13726 fps=183 q=-0.0 size=N/A time=00:09:32.48 bitrate=N/A speed=7.65x    frame=13822 fps=184 q=-0.0 size=N/A time=00:09:36.49 bitrate=N/A speed=7.65x    frame=13916 fps=183 q=-0.0 size=N/A time=00:09:40.41 bitrate=N/A speed=7.65x    frame=14011 fps=183 q=-0.0 size=N/A time=00:09:44.37 bitrate=N/A speed=7.65x    frame=14092 fps=183 q=-0.0 size=N/A time=00:09:47.75 bitrate=N/A speed=7.65x    frame=14198 fps=183 q=-0.0 size=N/A time=00:09:52.17 bitrate=N/A speed=7.65x    frame=14295 fps=183 q=-0.0 size=N/A time=00:09:56.22 bitrate=N/A speed=7.65x    frame=14385 fps=183 q=-0.0 size=N/A time=00:09:59.97 bitrate=N/A speed=7.65x    frame=14475 fps=183 q=-0.0 size=N/A time=00:10:03.72 bitrate=N/A speed=7.65x    frame=14579 fps=183 q=-0.0 size=N/A time=00:10:08.06 bitrate=N/A speed=7.65x    frame=14675 fps=184 q=-0.0 size=N/A time=00:10:12.06 bitrate=N/A speed=7.65x    frame=14768 fps=184 q=-0.0 size=N/A time=00:10:15.94 bitrate=N/A speed=7.65x    frame=14854 fps=183 q=-0.0 size=N/A time=00:10:19.53 bitrate=N/A speed=7.65x    frame=14947 fps=183 q=-0.0 size=N/A time=00:10:23.41 bitrate=N/A speed=7.65x    frame=15049 fps=183 q=-0.0 size=N/A time=00:10:27.66 bitrate=N/A speed=7.65x    frame=15142 fps=183 q=-0.0 size=N/A time=00:10:31.54 bitrate=N/A speed=7.65x    frame=15237 fps=183 q=-0.0 size=N/A time=00:10:35.50 bitrate=N/A speed=7.65x    frame=15325 fps=183 q=-0.0 size=N/A time=00:10:39.18 bitrate=N/A speed=7.65x    frame=15424 fps=183 q=-0.0 size=N/A time=00:10:43.30 bitrate=N/A speed=7.65x    frame=15519 fps=183 q=-0.0 size=N/A time=00:10:47.27 bitrate=N/A speed=7.65x    frame=15616 fps=183 q=-0.0 size=N/A time=00:10:51.31 bitrate=N/A speed=7.65x    frame=15709 fps=183 q=-0.0 size=N/A time=00:10:55.19 bitrate=N/A speed=7.65x    frame=15802 fps=183 q=-0.0 size=N/A time=00:10:59.07 bitrate=N/A speed=7.65x    frame=15898 fps=183 q=-0.0 size=N/A time=00:11:03.07 bitrate=N/A speed=7.65x    frame=15993 fps=183 q=-0.0 size=N/A time=00:11:07.04 bitrate=N/A speed=7.65x    frame=16087 fps=183 q=-0.0 size=N/A time=00:11:10.96 bitrate=N/A speed=7.65x    frame=16180 fps=183 q=-0.0 size=N/A time=00:11:14.84 bitrate=N/A speed=7.65x    frame=16274 fps=183 q=-0.0 size=N/A time=00:11:18.76 bitrate=N/A speed=7.65x    frame=16371 fps=183 q=-0.0 size=N/A time=00:11:22.80 bitrate=N/A speed=7.65x    frame=16452 fps=183 q=-0.0 size=N/A time=00:11:26.18 bitrate=N/A speed=7.64x    frame=16555 fps=183 q=-0.0 size=N/A time=00:11:30.48 bitrate=N/A speed=7.65x    frame=16639 fps=183 q=-0.0 size=N/A time=00:11:33.98 bitrate=N/A speed=7.64x    frame=16743 fps=183 q=-0.0 size=N/A time=00:11:38.32 bitrate=N/A speed=7.65x    frame=16834 fps=183 q=-0.0 size=N/A time=00:11:42.11 bitrate=N/A speed=7.65x    frame=16922 fps=183 q=-0.0 size=N/A time=00:11:45.78 bitrate=N/A speed=7.64x    frame=17018 fps=183 q=-0.0 size=N/A time=00:11:49.79 bitrate=N/A speed=7.64x    frame=17118 fps=183 q=-0.0 size=N/A time=00:11:53.96 bitrate=N/A speed=7.65x    frame=17219 fps=183 q=-0.0 size=N/A time=00:11:58.17 bitrate=N/A speed=7.65x    frame=17320 fps=183 q=-0.0 size=N/A time=00:12:02.38 bitrate=N/A speed=7.65x    frame=17410 fps=183 q=-0.0 size=N/A time=00:12:06.14 bitrate=N/A speed=7.65x    frame=17505 fps=183 q=-0.0 size=N/A time=00:12:10.10 bitrate=N/A speed=7.65x    frame=17605 fps=183 q=-0.0 size=N/A time=00:12:14.27 bitrate=N/A speed=7.65x    frame=17699 fps=183 q=-0.0 size=N/A time=00:12:18.19 bitrate=N/A speed=7.65x    frame=17785 fps=183 q=-0.0 size=N/A time=00:12:21.78 bitrate=N/A speed=7.65x    frame=17888 fps=183 q=-0.0 size=N/A time=00:12:26.07 bitrate=N/A speed=7.65x    frame=17984 fps=183 q=-0.0 size=N/A time=00:12:30.08 bitrate=N/A speed=7.65x    frame=18080 fps=183 q=-0.0 size=N/A time=00:12:34.08 bitrate=N/A speed=7.65x    frame=18175 fps=183 q=-0.0 size=N/A time=00:12:38.04 bitrate=N/A speed=7.65x    frame=18269 fps=183 q=-0.0 size=N/A time=00:12:41.96 bitrate=N/A speed=7.65x    frame=18370 fps=184 q=-0.0 size=N/A time=00:12:46.18 bitrate=N/A speed=7.65x    frame=18454 fps=183 q=-0.0 size=N/A time=00:12:49.68 bitrate=N/A speed=7.65x    frame=18562 fps=184 q=-0.0 size=N/A time=00:12:54.19 bitrate=N/A speed=7.66x    frame=18662 fps=184 q=-0.0 size=N/A time=00:12:58.36 bitrate=N/A speed=7.66x    frame=18758 fps=184 q=-0.0 size=N/A time=00:13:02.36 bitrate=N/A speed=7.66x    frame=18848 fps=184 q=-0.0 size=N/A time=00:13:06.11 bitrate=N/A speed=7.66x    frame=18951 fps=184 q=-0.0 size=N/A time=00:13:10.41 bitrate=N/A speed=7.66x    frame=19053 fps=184 q=-0.0 size=N/A time=00:13:14.66 bitrate=N/A speed=7.66x    frame=19150 fps=184 q=-0.0 size=N/A time=00:13:18.71 bitrate=N/A speed=7.66x    frame=19245 fps=184 q=-0.0 size=N/A time=00:13:22.67 bitrate=N/A speed=7.66x    frame=19339 fps=184 q=-0.0 size=N/A time=00:13:26.59 bitrate=N/A speed=7.66x    frame=19434 fps=184 q=-0.0 size=N/A time=00:13:30.55 bitrate=N/A speed=7.66x    frame=19533 fps=184 q=-0.0 size=N/A time=00:13:34.68 bitrate=N/A speed=7.67x    frame=19633 fps=184 q=-0.0 size=N/A time=00:13:38.85 bitrate=N/A speed=7.67x    frame=19735 fps=184 q=-0.0 size=N/A time=00:13:43.11 bitrate=N/A speed=7.67x    frame=19822 fps=184 q=-0.0 size=N/A time=00:13:46.74 bitrate=N/A speed=7.67x    frame=19930 fps=184 q=-0.0 size=N/A time=00:13:51.24 bitrate=N/A speed=7.67x    frame=20027 fps=184 q=-0.0 size=N/A time=00:13:55.29 bitrate=N/A speed=7.67x    frame=20128 fps=184 q=-0.0 size=N/A time=00:13:59.50 bitrate=N/A speed=7.68x    frame=20226 fps=184 q=-0.0 size=N/A time=00:14:03.59 bitrate=N/A speed=7.68x    frame=20313 fps=184 q=-0.0 size=N/A time=00:14:07.22 bitrate=N/A speed=7.67x    frame=20410 fps=184 q=-0.0 size=N/A time=00:14:11.26 bitrate=N/A speed=7.67x    frame=20512 fps=184 q=-0.0 size=N/A time=00:14:15.52 bitrate=N/A speed=7.68x    frame=20613 fps=184 q=-0.0 size=N/A time=00:14:19.73 bitrate=N/A speed=7.68x    frame=20703 fps=184 q=-0.0 size=N/A time=00:14:23.48 bitrate=N/A speed=7.68x    frame=20801 fps=184 q=-0.0 size=N/A time=00:14:27.57 bitrate=N/A speed=7.68x    frame=20889 fps=184 q=-0.0 size=N/A time=00:14:31.24 bitrate=N/A speed=7.68x    frame=20982 fps=184 q=-0.0 size=N/A time=00:14:35.12 bitrate=N/A speed=7.68x    frame=21086 fps=184 q=-0.0 size=N/A time=00:14:39.46 bitrate=N/A speed=7.68x    frame=21178 fps=184 q=-0.0 size=N/A time=00:14:43.29 bitrate=N/A speed=7.68x    frame=21274 fps=184 q=-0.0 size=N/A time=00:14:47.30 bitrate=N/A speed=7.68x    frame=21368 fps=184 q=-0.0 size=N/A time=00:14:51.22 bitrate=N/A speed=7.68x    frame=21467 fps=184 q=-0.0 size=N/A time=00:14:55.35 bitrate=N/A speed=7.68x    frame=21558 fps=184 q=-0.0 size=N/A time=00:14:59.14 bitrate=N/A speed=7.68x    frame=21647 fps=184 q=-0.0 size=N/A time=00:15:02.86 bitrate=N/A speed=7.67x    frame=21746 fps=184 q=-0.0 size=N/A time=00:15:06.98 bitrate=N/A speed=7.68x    frame=21836 fps=184 q=-0.0 size=N/A time=00:15:10.74 bitrate=N/A speed=7.67x    frame=21935 fps=184 q=-0.0 size=N/A time=00:15:14.87 bitrate=N/A speed=7.68x    frame=22031 fps=184 q=-0.0 size=N/A time=00:15:18.87 bitrate=N/A speed=7.68x    frame=22130 fps=184 q=-0.0 size=N/A time=00:15:23.00 bitrate=N/A speed=7.68x    frame=22224 fps=184 q=-0.0 size=N/A time=00:15:26.92 bitrate=N/A speed=7.68x    frame=22318 fps=184 q=-0.0 size=N/A time=00:15:30.84 bitrate=N/A speed=7.68x    frame=22402 fps=184 q=-0.0 size=N/A time=00:15:34.35 bitrate=N/A speed=7.67x    frame=22505 fps=184 q=-0.0 size=N/A time=00:15:38.64 bitrate=N/A speed=7.68x    frame=22595 fps=184 q=-0.0 size=N/A time=00:15:42.39 bitrate=N/A speed=7.67x    frame=22692 fps=184 q=-0.0 size=N/A time=00:15:46.44 bitrate=N/A speed=7.68x    frame=22783 fps=184 q=-0.0 size=N/A time=00:15:50.24 bitrate=N/A speed=7.67x    frame=22879 fps=184 q=-0.0 size=N/A time=00:15:54.24 bitrate=N/A speed=7.67x    frame=22968 fps=184 q=-0.0 size=N/A time=00:15:57.95 bitrate=N/A speed=7.67x    frame=23065 fps=184 q=-0.0 size=N/A time=00:16:02.00 bitrate=N/A speed=7.67x    frame=23162 fps=184 q=-0.0 size=N/A time=00:16:06.04 bitrate=N/A speed=7.67x    frame=23248 fps=184 q=-0.0 size=N/A time=00:16:09.63 bitrate=N/A speed=7.67x    frame=23354 fps=184 q=-0.0 size=N/A time=00:16:14.05 bitrate=N/A speed=7.67x    frame=23444 fps=184 q=-0.0 size=N/A time=00:16:17.81 bitrate=N/A speed=7.67x    frame=23542 fps=184 q=-0.0 size=N/A time=00:16:21.89 bitrate=N/A speed=7.67x    frame=23635 fps=184 q=-0.0 size=N/A time=00:16:25.77 bitrate=N/A speed=7.67x    frame=23731 fps=184 q=-0.0 size=N/A time=00:16:29.78 bitrate=N/A speed=7.67x    frame=23827 fps=184 q=-0.0 size=N/A time=00:16:33.78 bitrate=N/A speed=7.67x    frame=23921 fps=184 q=-0.0 size=N/A time=00:16:37.70 bitrate=N/A speed=7.67x    frame=24013 fps=184 q=-0.0 size=N/A time=00:16:41.54 bitrate=N/A speed=7.67x    frame=24109 fps=184 q=-0.0 size=N/A time=00:16:45.54 bitrate=N/A speed=7.67x    frame=24198 fps=184 q=-0.0 size=N/A time=00:16:49.25 bitrate=N/A speed=7.67x    frame=24300 fps=184 q=-0.0 size=N/A time=00:16:53.51 bitrate=N/A speed=7.67x    frame=24395 fps=184 q=-0.0 size=N/A time=00:16:57.47 bitrate=N/A speed=7.67x    frame=24489 fps=184 q=-0.0 size=N/A time=00:17:01.39 bitrate=N/A speed=7.67x    frame=24582 fps=184 q=-0.0 size=N/A time=00:17:05.27 bitrate=N/A speed=7.67x    frame=24670 fps=184 q=-0.0 size=N/A time=00:17:08.94 bitrate=N/A speed=7.67x    frame=24769 fps=184 q=-0.0 size=N/A time=00:17:13.07 bitrate=N/A speed=7.67x    frame=24857 fps=184 q=-0.0 size=N/A time=00:17:16.74 bitrate=N/A speed=7.67x    frame=24959 fps=184 q=-0.0 size=N/A time=00:17:20.99 bitrate=N/A speed=7.67x    frame=25054 fps=184 q=-0.0 size=N/A time=00:17:24.96 bitrate=N/A speed=7.67x    frame=25148 fps=184 q=-0.0 size=N/A time=00:17:28.88 bitrate=N/A speed=7.67x    frame=25245 fps=184 q=-0.0 size=N/A time=00:17:32.92 bitrate=N/A speed=7.67x    frame=25340 fps=184 q=-0.0 size=N/A time=00:17:36.88 bitrate=N/A speed=7.67x    frame=25430 fps=184 q=-0.0 size=N/A time=00:17:40.64 bitrate=N/A speed=7.67x    frame=25531 fps=184 q=-0.0 size=N/A time=00:17:44.85 bitrate=N/A speed=7.67x    frame=25627 fps=184 q=-0.0 size=N/A time=00:17:48.85 bitrate=N/A speed=7.67x    frame=25723 fps=184 q=-0.0 size=N/A time=00:17:52.86 bitrate=N/A speed=7.67x    frame=25817 fps=184 q=-0.0 size=N/A time=00:17:56.78 bitrate=N/A speed=7.67x    frame=25915 fps=184 q=-0.0 size=N/A time=00:18:00.87 bitrate=N/A speed=7.67x    frame=25998 fps=184 q=-0.0 size=N/A time=00:18:04.33 bitrate=N/A speed=7.67x    frame=26102 fps=184 q=-0.0 size=N/A time=00:18:08.67 bitrate=N/A speed=7.67x    frame=26196 fps=184 q=-0.0 size=N/A time=00:18:12.59 bitrate=N/A speed=7.67x    frame=26289 fps=184 q=-0.0 size=N/A time=00:18:16.47 bitrate=N/A speed=7.67x    frame=26376 fps=184 q=-0.0 size=N/A time=00:18:20.09 bitrate=N/A speed=7.67x    frame=26472 fps=184 q=-0.0 size=N/A time=00:18:24.10 bitrate=N/A speed=7.67x    frame=26573 fps=184 q=-0.0 size=N/A time=00:18:28.31 bitrate=N/A speed=7.67x    frame=26667 fps=184 q=-0.0 size=N/A time=00:18:32.23 bitrate=N/A speed=7.67x    frame=26760 fps=184 q=-0.0 size=N/A time=00:18:36.11 bitrate=N/A speed=7.67x    frame=26856 fps=184 q=-0.0 size=N/A time=00:18:40.11 bitrate=N/A speed=7.67x    frame=26950 fps=184 q=-0.0 size=N/A time=00:18:44.03 bitrate=N/A speed=7.67x    frame=27041 fps=184 q=-0.0 size=N/A time=00:18:47.83 bitrate=N/A speed=7.67x    frame=27137 fps=184 q=-0.0 size=N/A time=00:18:51.83 bitrate=N/A speed=7.67x    frame=27223 fps=184 q=-0.0 size=N/A time=00:18:55.42 bitrate=N/A speed=7.67x    frame=27322 fps=184 q=-0.0 size=N/A time=00:18:59.55 bitrate=N/A speed=7.67x    frame=27403 fps=184 q=-0.0 size=N/A time=00:19:02.93 bitrate=N/A speed=7.67x    frame=27511 fps=184 q=-0.0 size=N/A time=00:19:07.43 bitrate=N/A speed=7.67x    frame=27599 fps=184 q=-0.0 size=N/A time=00:19:11.10 bitrate=N/A speed=7.67x    frame=27685 fps=184 q=-0.0 size=N/A time=00:19:14.69 bitrate=N/A speed=7.66x    frame=27789 fps=184 q=-0.0 size=N/A time=00:19:19.03 bitrate=N/A speed=7.67x    frame=27885 fps=184 q=-0.0 size=N/A time=00:19:23.03 bitrate=N/A speed=7.67x    frame=27977 fps=184 q=-0.0 size=N/A time=00:19:26.87 bitrate=N/A speed=7.67x    frame=28067 fps=184 q=-0.0 size=N/A time=00:19:30.62 bitrate=N/A speed=7.67x    frame=28165 fps=184 q=-0.0 size=N/A time=00:19:34.71 bitrate=N/A speed=7.67x    frame=28260 fps=184 q=-0.0 size=N/A time=00:19:38.67 bitrate=N/A speed=7.67x    frame=28354 fps=184 q=-0.0 size=N/A time=00:19:42.59 bitrate=N/A speed=7.67x    frame=28448 fps=184 q=-0.0 size=N/A time=00:19:46.51 bitrate=N/A speed=7.67x    frame=28539 fps=184 q=-0.0 size=N/A time=00:19:50.31 bitrate=N/A speed=7.66x    frame=28637 fps=184 q=-0.0 size=N/A time=00:19:54.40 bitrate=N/A speed=7.67x    frame=28738 fps=184 q=-0.0 size=N/A time=00:19:58.61 bitrate=N/A speed=7.67x    frame=28827 fps=184 q=-0.0 size=N/A time=00:20:02.32 bitrate=N/A speed=7.67x    frame=28933 fps=184 q=-0.0 size=N/A time=00:20:06.74 bitrate=N/A speed=7.67x    frame=29022 fps=184 q=-0.0 size=N/A time=00:20:10.45 bitrate=N/A speed=7.67x    frame=29121 fps=184 q=-0.0 size=N/A time=00:20:14.58 bitrate=N/A speed=7.67x    frame=29213 fps=184 q=-0.0 size=N/A time=00:20:18.42 bitrate=N/A speed=7.67x    frame=29303 fps=184 q=-0.0 size=N/A time=00:20:22.17 bitrate=N/A speed=7.67x    frame=29404 fps=184 q=-0.0 size=N/A time=00:20:26.39 bitrate=N/A speed=7.67x    frame=29502 fps=184 q=-0.0 size=N/A time=00:20:30.47 bitrate=N/A speed=7.67x    frame=29598 fps=184 q=-0.0 size=N/A time=00:20:34.48 bitrate=N/A speed=7.67x    frame=29685 fps=184 q=-0.0 size=N/A time=00:20:38.11 bitrate=N/A speed=7.67x    frame=29775 fps=184 q=-0.0 size=N/A time=00:20:41.86 bitrate=N/A speed=7.67x    frame=29874 fps=184 q=-0.0 size=N/A time=00:20:45.99 bitrate=N/A speed=7.67x    frame=29975 fps=184 q=-0.0 size=N/A time=00:20:50.20 bitrate=N/A speed=7.67x    frame=30069 fps=184 q=-0.0 size=N/A time=00:20:54.12 bitrate=N/A speed=7.67x    frame=30157 fps=184 q=-0.0 size=N/A time=00:20:57.79 bitrate=N/A speed=7.67x    frame=30262 fps=184 q=-0.0 size=N/A time=00:21:02.17 bitrate=N/A speed=7.67x    frame=30356 fps=184 q=-0.0 size=N/A time=00:21:06.09 bitrate=N/A speed=7.67x    frame=30447 fps=184 q=-0.0 size=N/A time=00:21:09.89 bitrate=N/A speed=7.67x    frame=30540 fps=184 q=-0.0 size=N/A time=00:21:13.77 bitrate=N/A speed=7.67x    frame=30631 fps=184 q=-0.0 size=N/A time=00:21:17.56 bitrate=N/A speed=7.67x    frame=30725 fps=184 q=-0.0 size=N/A time=00:21:21.48 bitrate=N/A speed=7.66x    frame=30805 fps=184 q=-0.0 size=N/A time=00:21:24.82 bitrate=N/A speed=7.66x    frame=30908 fps=184 q=-0.0 size=N/A time=00:21:29.12 bitrate=N/A speed=7.66x    frame=30999 fps=184 q=-0.0 size=N/A time=00:21:32.91 bitrate=N/A speed=7.66x    frame=31090 fps=184 q=-0.0 size=N/A time=00:21:36.71 bitrate=N/A speed=7.66x    frame=31172 fps=184 q=-0.0 size=N/A time=00:21:40.13 bitrate=N/A speed=7.66x    frame=31262 fps=184 q=-0.0 size=N/A time=00:21:43.88 bitrate=N/A speed=7.66x    frame=31368 fps=184 q=-0.0 size=N/A time=00:21:48.30 bitrate=N/A speed=7.66x    frame=31459 fps=184 q=-0.0 size=N/A time=00:21:52.10 bitrate=N/A speed=7.66x    frame=31549 fps=184 q=-0.0 size=N/A time=00:21:55.85 bitrate=N/A speed=7.66x    frame=31640 fps=184 q=-0.0 size=N/A time=00:21:59.65 bitrate=N/A speed=7.66x    frame=31730 fps=184 q=-0.0 size=N/A time=00:22:03.40 bitrate=N/A speed=7.66x    frame=31822 fps=184 q=-0.0 size=N/A time=00:22:07.24 bitrate=N/A speed=7.66x    frame=31912 fps=184 q=-0.0 size=N/A time=00:22:10.99 bitrate=N/A speed=7.65x    frame=32005 fps=183 q=-0.0 size=N/A time=00:22:14.87 bitrate=N/A speed=7.65x    frame=32097 fps=183 q=-0.0 size=N/A time=00:22:18.71 bitrate=N/A speed=7.65x    frame=32189 fps=183 q=-0.0 size=N/A time=00:22:22.54 bitrate=N/A speed=7.65x    frame=32275 fps=183 q=-0.0 size=N/A time=00:22:26.13 bitrate=N/A speed=7.65x    frame=32374 fps=183 q=-0.0 size=N/A time=00:22:30.26 bitrate=N/A speed=7.65x    frame=32464 fps=183 q=-0.0 size=N/A time=00:22:34.01 bitrate=N/A speed=7.65x    frame=32561 fps=183 q=-0.0 size=N/A time=00:22:38.06 bitrate=N/A speed=7.65x    frame=32648 fps=183 q=-0.0 size=N/A time=00:22:41.69 bitrate=N/A speed=7.65x    frame=32750 fps=183 q=-0.0 size=N/A time=00:22:45.94 bitrate=N/A speed=7.65x    frame=32846 fps=183 q=-0.0 size=N/A time=00:22:49.95 bitrate=N/A speed=7.65x    frame=32932 fps=183 q=-0.0 size=N/A time=00:22:53.53 bitrate=N/A speed=7.65x    frame=33022 fps=183 q=-0.0 size=N/A time=00:22:57.29 bitrate=N/A speed=7.65x    [Parsed_ssim_10 @ 000001b12f496700] SSIM Y:0.995119 (23.115222) U:0.994265 (22.414300) V:0.993797 (22.073768) All:0.994756 (22.803733)
[out#0/null @ 000001b12961ff00] video:14218KiB audio:258984KiB subtitle:0KiB other streams:0KiB global headers:0KiB muxing overhead: unknown
frame=33088 fps=183 q=-0.0 Lsize=N/A time=00:23:00.04 bitrate=N/A speed=7.65x    
